<svg width="24" height="24" viewBox="0 0 24 24" fill="none" xmlns="http://www.w3.org/2000/svg">
  <path fill-rule="evenodd" clip-rule="evenodd" d="M9.00489 2.02128C8.98373 1.97681 8.93318 1.95454 8.88614 1.96912C7.09866 2.52322 5.51554 3.54195 4.27794 4.88414C4.23791 4.92755 4.24479 4.99593 4.29178 5.03168C5.51717 5.96385 6.48924 7.21187 7.08663 8.65437C7.10503 8.69882 7.15218 8.72434 7.19939 8.71506C8.38456 8.48216 9.60007 8.33385 10.8394 8.27669C10.8992 8.27393 10.9435 8.21971 10.9337 8.16062C10.5744 5.99878 9.91694 3.93776 9.00489 2.02128ZM3.22203 6.23472C3.25326 6.18726 3.3179 6.17595 3.36324 6.21018C4.31435 6.92823 5.08294 7.87522 5.58705 8.96919C5.61276 9.02499 5.58145 9.09007 5.52214 9.10611C4.22524 9.45681 2.97056 9.91029 1.76739 10.4573C1.6953 10.49 1.61527 10.4305 1.6276 10.3523C1.86435 8.85015 2.4196 7.45386 3.22203 6.23472ZM6.11577 10.6093C6.10486 10.5531 6.04861 10.5184 5.99336 10.5331C4.4455 10.9458 2.96118 11.5142 1.55821 12.2205C1.52381 12.2379 1.50248 12.2736 1.50361 12.3121C1.56229 14.3227 2.18623 16.1916 3.22203 17.7653C3.25327 17.8127 3.31792 17.824 3.36326 17.7898C5.11611 16.4665 6.24902 14.3655 6.24902 12C6.24902 11.5243 6.20321 11.0594 6.11577 10.6093ZM20.4768 5.96717C20.5213 5.93743 20.5813 5.94885 20.612 5.99274C21.5029 7.26775 22.118 8.74979 22.3705 10.3523C22.3829 10.4305 22.3028 10.49 22.2307 10.4573C20.8909 9.84816 19.4872 9.355 18.0324 8.99059C17.9714 8.97531 17.9391 8.90829 17.9665 8.85165C18.532 7.68033 19.4033 6.6843 20.4768 5.96717ZM19.5139 4.66666C19.5571 4.71092 19.5493 4.78331 19.4985 4.81869C18.1604 5.75223 17.0953 7.05025 16.4474 8.56884C16.4289 8.61205 16.3832 8.63706 16.3369 8.62888C15.1044 8.41098 13.8403 8.28429 12.5519 8.25606C12.5032 8.25499 12.4623 8.21908 12.4548 8.17092C12.1035 5.90884 11.4458 3.74807 10.5255 1.73236C10.4978 1.67152 10.536 1.6009 10.6023 1.59209C11.0592 1.53135 11.5255 1.5 11.9991 1.5C14.9447 1.5 17.6071 2.71296 19.5139 4.66666ZM20.4767 18.0328C20.5213 18.0626 20.5813 18.0512 20.612 18.0073C21.7458 16.3847 22.4328 14.4268 22.4945 12.3121C22.4956 12.2736 22.4743 12.2379 22.4399 12.2205C20.8933 11.4419 19.2478 10.8309 17.5273 10.4112C17.4733 10.3981 17.4189 10.4318 17.4073 10.4863C17.3036 10.9745 17.249 11.4809 17.249 12C17.249 14.516 18.5307 16.7327 20.4767 18.0328ZM15.8554 10.0683C15.9118 10.0778 15.9485 10.1326 15.9368 10.1886C15.8137 10.773 15.749 11.379 15.749 12C15.749 14.9732 17.232 17.6001 19.4985 19.1813C19.5492 19.2167 19.5571 19.2891 19.5139 19.3333C17.6071 21.287 14.9447 22.5 11.9991 22.5C11.5255 22.5 11.0592 22.4686 10.6023 22.4079C10.536 22.3991 10.4978 22.3285 10.5255 22.2677C11.9535 19.1399 12.7492 15.6629 12.7492 12C12.7492 11.2828 12.7187 10.5727 12.6589 9.87092C12.6538 9.81128 12.7016 9.76034 12.7615 9.76227C13.8119 9.79611 14.8447 9.89962 15.8554 10.0683ZM11.2492 12C11.2492 11.2783 11.2163 10.5643 11.1519 9.85933C11.1471 9.8066 11.1019 9.76693 11.049 9.76906C9.89506 9.81544 8.7628 9.94592 7.65816 10.1545C7.60319 10.1649 7.56773 10.2185 7.5787 10.2734C7.69042 10.8316 7.74902 11.4089 7.74902 12C7.74902 14.8434 6.39273 17.3701 4.29179 18.9683C4.2448 19.0041 4.23791 19.0724 4.27794 19.1159C5.51553 20.458 7.09866 21.4768 8.88614 22.0309C8.93318 22.0455 8.98373 22.0232 9.00489 21.9787C10.4439 18.955 11.2492 15.5716 11.2492 12Z" fill="#26272B"/>
  </svg>
  