<svg xmlns="http://www.w3.org/2000/svg" width="107" height="136" fill="none"><path fill="url(#a)" d="M31.802 55.614c7.791 5.72 11.687 8.58 11.687 13.471 0 4.892-3.896 7.752-11.687 13.472-2.15 1.579-4.284 3.066-6.244 4.305-1.72 1.087-3.667 2.21-5.684 3.314-7.772 4.254-11.66 6.382-15.145 4.026C1.243 91.847.927 86.917.294 77.058.114 74.269 0 71.535 0 69.085s.114-5.183.294-7.972c.633-9.86.95-14.79 4.435-17.145 3.486-2.355 7.373-.228 15.145 4.026 2.017 1.104 3.964 2.228 5.684 3.315 1.96 1.239 4.094 2.726 6.244 4.305Z"/><g fill-rule="evenodd" clip-rule="evenodd" opacity=".5"><path fill="url(#b)" d="M46.035 28.489a6.523 6.523 0 0 1 9.224-.205C65.67 38.244 72.19 51.999 72.19 67.25c0 15.435-6.675 29.334-17.305 39.32a6.524 6.524 0 0 1-8.933-9.507c8.215-7.719 13.192-18.258 13.192-29.813 0-11.42-4.861-21.847-12.904-29.54a6.524 6.524 0 0 1-.205-9.222Z"/><path fill="url(#c)" d="M71.028 1.864a6.523 6.523 0 0 1 9.225.092c16.526 16.858 26.728 39.97 26.728 65.45 0 25.784-10.445 49.141-27.32 66.048a6.523 6.523 0 1 1-9.234-9.216c14.533-14.562 23.508-34.643 23.508-56.832 0-21.93-8.766-41.799-22.998-56.317a6.523 6.523 0 0 1 .091-9.225Z"/></g><defs><linearGradient id="a" x1="21.75" x2="-29.047" y1="109.563" y2="11.298" gradientUnits="userSpaceOnUse"><stop stop-color="#5D00FF"/><stop offset="1" stop-color="#031AB4"/></linearGradient><linearGradient id="b" x1="13.506" x2="-79.975" y1="173.73" y2="-123.071" gradientUnits="userSpaceOnUse"><stop stop-color="#5D00FF"/><stop offset="1" stop-color="#031AB4"/></linearGradient><linearGradient id="c" x1="13.506" x2="-79.976" y1="173.73" y2="-123.071" gradientUnits="userSpaceOnUse"><stop stop-color="#5D00FF"/><stop offset="1" stop-color="#031AB4"/></linearGradient></defs></svg>